<svg width="72" height="72" viewBox="0 0 72 72" fill="none" xmlns="http://www.w3.org/2000/svg">
<path d="M55.1297 13.2559C52.7196 13.2559 50.9121 15.0634 50.9121 17.4734C50.9121 19.8835 52.7196 21.691 55.1297 21.691C57.5397 21.691 59.3473 19.8835 59.3473 17.4734C59.3473 15.0634 57.5397 13.2559 55.1297 13.2559Z" fill="#151515"/>
<path d="M36.151 18.6797C26.2096 18.6797 18.377 26.8136 18.377 36.4537C18.377 46.0939 26.5108 54.2278 36.151 54.2278C45.7912 54.2278 53.9251 46.0939 53.9251 36.4537C53.9251 26.8136 46.0924 18.6797 36.151 18.6797ZM36.151 47.9014C29.8246 47.9014 24.7033 42.7801 24.7033 36.4537C24.7033 30.1274 29.8246 25.006 36.151 25.006C42.4774 25.006 47.5987 30.1274 47.5987 36.4537C47.5987 42.7801 42.4774 47.9014 36.151 47.9014Z" fill="#151515"/>
<path d="M50.6109 0H21.9916C9.64017 0 0 9.64017 0 21.6904V50.3096C0 62.3598 9.64017 72 21.6904 72H50.3096C62.3598 72 72 62.3598 72 50.3096V21.6904C72.3012 9.64017 62.6611 0 50.6109 0ZM65.3724 50.6109C65.3724 58.7448 58.7448 65.6736 50.3096 65.6736H21.6904C13.5565 65.6736 6.62761 59.046 6.62761 50.6109V21.9916C6.62761 13.8577 13.2552 6.92887 21.6904 6.92887H50.3096C58.4435 6.92887 65.3724 13.5565 65.3724 21.9916V50.6109Z" fill="#151515"/>
</svg>
