<svg width="72" height="72" viewBox="0 0 72 72" fill="none" xmlns="http://www.w3.org/2000/svg">
<path fill-rule="evenodd" clip-rule="evenodd" d="M72 72H57.6V46.8035C57.6 39.8915 54.5508 36.0352 49.0824 36.0352C43.1316 36.0352 39.6 40.0535 39.6 46.8035V72H25.2V25.2H39.6V30.4629C39.6 30.4629 44.118 22.5352 54.2988 22.5352C64.4832 22.5352 72 28.75 72 41.6092V72ZM8.7912 17.7152C3.9348 17.7152 0 13.7483 0 8.85586C0 3.96706 3.9348 0 8.7912 0C13.644 0 17.5788 3.96706 17.5788 8.85586C17.5824 13.7483 13.644 17.7152 8.7912 17.7152ZM0 72H18V25.2H0V72Z" fill="#151515"/>
</svg>
