<svg width="69" height="71" viewBox="0 0 69 71" fill="none" xmlns="http://www.w3.org/2000/svg">
<path d="M15.6364 21.8481C15.9928 19.0298 19.6556 15.1993 22.5625 15.6243L22.5579 15.6197C25.3868 16.1573 27.6262 21.0263 28.889 23.2157C29.7837 24.8042 29.2027 26.4137 28.3682 27.0928C27.2424 28.0002 25.4819 29.2523 25.8512 30.5094C26.5079 32.7442 34.3045 40.5407 38.1391 42.7571C39.5905 43.596 40.643 41.3834 41.5418 40.2497C42.1949 39.3778 43.8056 38.8567 45.3905 39.7174C47.7575 41.0958 49.9874 42.6979 52.0494 44.5013C53.0791 45.3621 53.3208 46.6342 52.6073 47.9786C51.3505 50.3466 47.7154 53.4692 45.0768 52.8346C40.4681 51.7266 21.83 44.5013 15.8433 23.5692C15.5066 22.579 15.5914 22.2046 15.6364 21.8481Z" fill="#151515"/>
<path fill-rule="evenodd" clip-rule="evenodd" d="M34.3048 68.6095C30.4888 68.6095 28.3775 68.2 24.9489 67.0502L18.3825 70.3335C14.2353 72.407 9.35584 69.3913 9.35584 64.7546V57.6944C2.64006 51.4322 0 44.2117 0 34.3048C0 15.3588 15.3588 0 34.3048 0C53.2506 0 68.6095 15.3588 68.6095 34.3048C68.6095 53.2506 53.2506 68.6095 34.3048 68.6095ZM15.5931 54.9821L13.6095 53.1325C8.39178 48.2674 6.23723 42.8282 6.23723 34.3048C6.23723 18.8035 18.8035 6.23723 34.3048 6.23723C49.8061 6.23723 62.3723 18.8035 62.3723 34.3048C62.3723 49.8061 49.8061 62.3723 34.3048 62.3723C31.2307 62.3723 29.789 62.0947 26.9322 61.1367L24.4763 60.3131L15.5931 64.7546V54.9821Z" fill="#151515"/>
</svg>
